<?xml version="1.0" encoding="UTF-8"?>
<svg height="256" viewBox="0 0 256 256" width="256" xmlns="http://www.w3.org/2000/svg"><path d="M256,128L256,128C256,133.12 256,151.04 246.411,175.169C234.36,208.279 208.279,234.36 175.169,246.411C151.04,256 133.12,256 128,256L128,256C122.88,256 104.96,256 80.8312,246.411C47.7215,234.36 21.6397,208.279 9.5887,175.169C0,151.04 0,133.12 0,128L0,128C0,122.88 0,104.96 9.5887,80.8312C21.6397,47.7215 47.7215,21.6397 80.8312,9.5887C104.96,0 122.88,0 128,0L128,0C133.12,0 151.04,0 175.169,9.5887C208.279,21.6397 234.36,47.7215 246.411,80.8312C256,104.96 256,122.88 256,128Z" fill="#3265FF"/></svg>